<svg width="173" height="66" viewBox="0 0 173 66" fill="none" xmlns="http://www.w3.org/2000/svg">
<path d="M21.3957 8.4987C24.652 8.53201 28.4293 9.03447 30.9925 9.3383C32.2075 9.48232 33.2493 9.86999 33.9896 10.687C34.7029 11.4742 34.9064 12.4205 35.0119 13.0919C36.0303 19.5723 32.199 23.9157 30.5846 26.0669C29.8231 27.0816 28.7843 27.8422 27.7009 28.4865C26.6233 29.1273 25.3538 29.7354 24.0891 30.3624C23.5982 30.6058 23.0968 30.8573 22.5877 31.1228C25.4434 33.2809 30.4417 36.5253 33.52 38.2016C34.3256 38.6402 34.6229 39.6488 34.1843 40.4544C33.7456 41.26 32.737 41.5574 31.9314 41.1188C28.3538 39.1707 22.2547 35.1798 19.488 32.9125C18.9116 33.2867 18.3327 33.6908 17.755 34.1322C17.8705 34.1864 17.9811 34.2375 18.0868 34.2849L18.1142 34.2972L18.141 34.3104C18.8331 34.6517 19.5483 35.0674 21.6144 36.1901C22.4204 36.6281 22.7186 37.6365 22.2807 38.4424C21.8428 39.2484 20.8344 39.5468 20.0284 39.1089C17.8756 37.939 17.2988 37.5999 16.6911 37.2992C16.2309 37.0917 15.7018 36.836 15.1125 36.5266C14.839 36.8752 14.6669 37.1982 14.5307 37.5653C14.2598 38.2948 14.0986 39.2745 13.8743 41.0901C13.8484 41.2999 13.8236 41.5084 13.7995 41.7155C13.9749 41.7883 14.1525 41.8624 14.332 41.9383C17.5863 43.3145 21.1664 44.0023 27.4505 45.3678C29.3994 45.7914 31.7573 46.3658 33.6374 47.1168C34.5678 47.4884 35.493 47.946 36.205 48.5226C36.8931 49.0798 37.6801 50.0018 37.6082 51.289C37.5007 53.2158 37.2187 56.5707 34.2055 58.5742C33.9054 58.7738 32.9278 59.5881 31.6447 60.1809C30.2742 60.814 28.4511 61.2915 25.9233 61.2692C22.0476 61.2351 18.7374 61.0117 16.2745 60.6284C15.0491 60.4377 13.9773 60.199 13.1311 59.9005C12.708 59.7512 12.2964 59.5716 11.9353 59.3479C11.5897 59.1338 11.1784 58.8111 10.8985 58.3289C10.6944 57.9772 10.5665 57.5645 10.4775 57.2089C10.3811 56.8237 10.299 56.3734 10.2299 55.8753C10.0914 54.8772 9.99343 53.6041 9.95316 52.1132C9.89215 49.8546 9.96252 47.05 10.2412 43.8681C9.39374 43.5388 8.589 43.2341 7.80275 42.93C6.21634 42.3165 4.71276 41.7073 3.20705 40.9294C1.98226 40.2965 1.47459 39.2104 1.30639 38.2187C1.15273 37.3127 1.25624 36.3481 1.33218 35.6657C1.53579 33.8359 2.84379 32.6844 3.97402 32.0128C5.13084 31.3253 6.44542 30.9266 7.33716 30.7003C8.16229 30.491 9.1316 30.5071 9.93211 30.5785C10.7152 30.6484 11.4966 30.787 12.1132 30.941L12.2343 30.972L12.5152 31.0457L12.7545 31.2104C13.404 31.6575 14.0202 32.0564 14.5973 32.4108C15.4702 31.6712 16.3463 31.0196 17.2098 30.4374C16.0085 28.6736 15.194 26.5636 14.6253 24.5392C13.7865 21.5532 13.4089 18.4794 13.2211 16.3222C13.1131 15.081 12.895 13.3176 13.5211 11.5133C14.0689 9.93449 15.5892 9.24784 16.8334 8.92381C18.1601 8.57829 19.7747 8.48211 21.3957 8.4987ZM13.4674 45.1748C13.2688 47.8143 13.2227 50.1364 13.2736 52.0236C13.3116 53.4305 13.4031 54.5755 13.5201 55.4187C13.5788 55.8413 13.6409 56.1675 13.6997 56.4024C13.7156 56.4657 13.7298 56.5168 13.7418 56.5571C13.8417 56.6118 14.0007 56.685 14.236 56.768C14.8098 56.9704 15.6571 57.1705 16.7853 57.3461C19.0297 57.6954 22.1646 57.9143 25.9526 57.9476C28.0233 57.9658 29.3566 57.5789 30.2517 57.1654C31.2342 56.7115 31.6314 56.2969 32.3663 55.8082C33.8458 54.8244 34.1652 53.165 34.2825 51.258C34.2498 51.2223 34.1971 51.1709 34.1145 51.1041C33.7837 50.8362 33.2165 50.5255 32.4052 50.2015C30.8016 49.5609 28.6775 49.0337 26.7451 48.6138C20.88 47.3392 16.9728 46.5881 13.4674 45.1748ZM9.63693 33.887C8.95043 33.8258 8.42908 33.8502 8.15402 33.92C7.36399 34.1204 6.4158 34.4257 5.67098 34.8682C4.89954 35.3267 4.66702 35.7315 4.63347 36.033C4.55102 36.7739 4.51728 37.2858 4.58129 37.6633C4.60931 37.8285 4.64699 37.9003 4.66152 37.9231C4.66748 37.9325 4.6762 37.9495 4.73181 37.9783C6.07058 38.67 7.43546 39.2265 9.00101 39.832C9.51319 40.0301 10.0479 40.2339 10.6071 40.4487C10.8117 38.8137 11.0072 37.5121 11.4167 36.4091C11.6324 35.8281 11.8993 35.3197 12.2269 34.8455C11.8702 34.6179 11.5027 34.3764 11.1252 34.12C10.7017 34.0241 10.1699 33.9346 9.63693 33.887ZM30.6015 12.6368C27.9451 12.322 24.3923 11.8512 21.3617 11.8202C19.8393 11.8046 18.5712 11.9036 17.6704 12.1382C16.8259 12.3581 16.6681 12.5947 16.6559 12.6123C16.3105 13.6162 16.4071 14.6185 16.5303 16.0342C16.7105 18.1041 17.0655 20.9435 17.8232 23.6408C18.3784 25.6171 19.1135 27.3814 20.0542 28.711C20.9503 28.2183 21.8101 27.7847 22.6135 27.3864C23.9541 26.7217 25.0654 26.1891 26.0031 25.6315C26.9352 25.0772 27.5463 24.5815 27.9279 24.0731C29.7235 21.6804 32.4956 18.4759 31.7306 13.6076C31.6455 13.066 31.5567 12.949 31.528 12.9174C31.5243 12.913 31.371 12.7281 30.6015 12.6368Z" fill="url(#paint0_radial_5169_95)"/>
<path d="M45.213 10.3528C46.3212 9.58941 47.775 9.50843 48.6931 9.55037C49.7024 9.5965 50.5852 9.90196 51.1265 10.075C51.4308 10.1723 51.6082 10.2239 51.7434 10.2486C51.8714 10.2721 51.837 10.2457 51.7271 10.2748C51.4733 10.3422 51.3048 10.471 51.2153 10.5564C51.1287 10.6391 51.0851 10.7098 51.0701 10.7353C51.0584 10.7553 51.0507 10.7717 51.0453 10.7841C53.0951 9.75112 54.2099 11.7649 54.2096 11.7813C54.2088 11.7842 54.2077 11.7883 54.2073 11.7893L54.2068 11.7914C54.0273 12.4208 53.4832 13.7939 53.3861 15.5247C53.3056 16.9585 52.8857 18.9638 52.3201 20.9701C52.4587 20.9839 52.6002 20.9975 52.7448 21.0104C54.5057 21.1665 56.7941 21.2496 58.5172 21.7941C59.4953 22.1033 60.2288 22.6057 60.8023 23.0768C61.0808 23.3057 61.338 23.5415 61.5465 23.7306C61.7682 23.9317 61.9389 24.0838 62.1029 24.2115C63.0697 24.9641 63.3565 26.0997 63.4571 26.9515C63.5618 27.8384 63.509 28.8356 63.4482 29.7212C63.314 31.6737 62.0841 33.2117 61.0207 34.3186C60.4696 34.8923 59.8718 35.4392 59.3687 35.9094C58.8407 36.4028 58.4195 36.8095 58.1071 37.181C56.5737 39.0046 55.6516 40.8597 54.3239 44.2402C53.6295 46.0082 53.8869 47.2723 54.4996 48.8554C54.5306 48.9355 54.5631 49.0172 54.5966 49.1004C54.9039 49.147 55.214 49.1828 55.53 49.2049C55.8803 49.1519 56.2395 49.0733 56.9417 48.9475C57.6922 48.813 58.6908 48.6544 60.1686 48.4915C63.1207 48.166 67.96 47.8316 74.4886 48.0777C75.4052 48.1123 76.1203 48.8834 76.0857 49.8C76.0512 50.7166 75.28 51.4316 74.3634 51.397C68.011 51.1576 63.3357 51.4842 60.5327 51.7932C59.1329 51.9475 58.2085 52.0951 57.5276 52.2171C56.9498 52.3207 56.4087 52.4338 55.9325 52.5026C56.2172 53.3856 56.4592 54.3572 56.5859 55.4193C56.6592 56.0341 56.8058 56.5189 56.9595 56.9981C57.0767 57.3635 57.3481 58.1018 57.3151 58.8208C57.2664 59.8814 56.4202 60.3254 56.156 60.4386C55.8277 60.5792 55.4964 60.6253 55.2856 60.6458C54.8291 60.6901 54.3221 60.6649 53.934 60.6263C52.3108 60.4648 50.8973 59.9614 49.606 59.4614C48.2765 58.9467 47.0959 58.4458 45.6964 58.0945C43.8623 57.6341 42.5172 56.403 41.4649 55.4048C40.2774 54.2783 40.2487 52.8608 40.5505 51.7895C40.8301 50.7973 41.4234 49.9218 41.823 49.3788C42.5336 48.4135 43.6442 48.0405 44.4459 47.8679C45.2975 47.6846 46.2011 47.6474 46.8681 47.6297C48.272 47.5925 49.6052 47.8804 50.8138 48.1949C50.4686 46.6902 50.4495 45.0186 51.2321 43.0259C52.5953 39.5552 53.6753 37.2904 55.5648 35.0433C56.0229 34.4985 56.5836 33.9658 57.1006 33.4826C57.6426 32.976 58.1531 32.509 58.6253 32.0174C59.6087 30.9938 60.086 30.1957 60.1342 29.4936C60.1963 28.5899 60.222 27.8812 60.1583 27.3413C60.1157 26.9812 60.0493 26.8417 60.0304 26.8071C59.7671 26.5998 59.5221 26.379 59.3149 26.1911C59.086 25.9835 58.8957 25.8094 58.6936 25.6434C58.3057 25.3247 57.9458 25.0973 57.5162 24.9616C56.2491 24.5611 54.5522 24.5054 52.4515 24.3191C52.0768 24.2859 51.6843 24.2478 51.2828 24.1992C50.8566 25.3738 50.3917 26.4931 49.9149 27.4451C48.862 29.5475 46.3022 32.8413 45.0798 34.2962C44.4897 34.9984 43.4421 35.0894 42.7399 34.4994C42.0376 33.9093 41.9466 32.8617 42.5366 32.1594C43.7594 30.7041 46.0851 27.6741 46.9448 25.9576C47.3059 25.2366 47.6704 24.3777 48.0181 23.4511C47.5115 23.252 47.0299 23.0057 46.5933 22.6979C46.0196 22.2934 45.3582 21.5899 44.7715 20.7961C44.1669 19.9781 43.5524 18.9442 43.138 17.8086C42.7266 16.6814 42.4753 15.3503 42.7359 14.0004C43.0069 12.5965 43.8046 11.323 45.213 10.3528ZM46.9563 50.9503C46.2971 50.9678 45.6667 51.0029 45.145 51.1152C44.5735 51.2382 44.4713 51.3843 44.4981 51.3479C44.1401 51.8343 43.8559 52.3067 43.7479 52.6902C43.7 52.8601 43.7091 52.9378 43.7114 52.9506C43.7115 52.9508 43.7117 52.9509 43.7118 52.9511C43.7129 52.9527 43.7147 52.9554 43.7175 52.959C43.723 52.9661 43.7335 52.9783 43.751 52.995C44.8377 54.0259 45.6145 54.6491 46.5051 54.8727C48.1585 55.2877 49.5916 55.894 50.8051 56.3638C51.7979 56.7482 52.6695 57.0529 53.56 57.2196C53.4533 56.8189 53.3516 56.3499 53.2876 55.8127C53.1113 54.3345 52.6882 53.1789 52.201 51.9982C51.6531 51.8634 51.1349 51.7204 50.6495 51.5889C49.2123 51.1995 48.0821 50.9204 46.9563 50.9503ZM48.5415 12.8685C47.8003 12.8346 47.2764 12.9649 47.0975 13.0882C46.3749 13.586 46.096 14.1183 45.9973 14.6299C45.8881 15.1955 45.9736 15.8897 46.2583 16.6698C46.5399 17.4414 46.9806 18.1966 47.4427 18.8217C47.9225 19.4709 48.3392 19.8646 48.5074 19.9832C48.6691 20.0972 48.8534 20.1989 49.0597 20.2903C49.6353 18.2893 50.0066 16.4606 50.0696 15.3386C50.1101 14.6167 50.2151 13.9252 50.341 13.3101C50.2612 13.2855 50.1855 13.2614 50.1152 13.2389C49.4807 13.0361 49.0304 12.8909 48.5415 12.8685ZM51.0283 10.8283C51.0263 10.8344 51.0242 10.8412 51.0218 10.849C51.0206 10.8529 51.0193 10.857 51.018 10.8612C51.0174 10.8633 51.0169 10.8651 51.0166 10.866C51.0204 10.8534 51.0265 10.8351 51.0327 10.8164C51.0313 10.8201 51.0298 10.824 51.0283 10.8283Z" fill="url(#paint1_radial_5169_95)"/>
<path d="M93.2473 17.2778C94.096 18.5487 95.5931 20.4145 97.1433 22.1675C98.6863 23.9123 100.169 25.4158 101.034 26.0887C101.448 26.3587 101.775 26.5256 102.031 26.6101C102.285 26.6943 102.384 26.6694 102.402 26.6643C103.21 26.4309 104.054 26.8965 104.287 27.7042C104.521 28.512 104.055 29.356 103.247 29.5895C101.727 30.0288 100.287 29.2445 99.3129 28.6016L99.2692 28.5727L99.2277 28.5409C98.1095 27.6869 96.4333 25.9608 94.8624 24.1845C94.6581 23.9535 94.4537 23.7192 94.2504 23.4836C94.2584 23.868 94.2542 24.2532 94.234 24.6348C94.1015 27.1317 93.2484 30.032 90.2466 31.2376C89.0808 31.7059 87.7418 32.1151 86.4758 31.8516C86.1702 31.788 85.4799 31.6773 84.9309 31.5172C84.3749 31.3551 83.543 31.0396 82.9794 30.2981C82.5347 29.7129 82.2127 28.8086 82.0015 27.9688C81.7756 27.0703 81.6179 26.0069 81.6179 24.9656C81.618 23.9548 81.766 22.7995 82.2938 21.8389C82.8779 20.7759 83.9123 20.006 85.3686 19.9855C86.2877 19.9726 87.4075 20.2629 88.3546 20.5931C89.3317 20.9338 90.3377 21.3927 91.0624 21.8559C91.0712 21.8615 91.0797 21.8677 91.0884 21.8734C90.945 20.6243 90.6999 19.4191 90.4919 18.4394L93.2473 17.2778ZM85.4113 23.0301C85.1685 23.0336 85.0782 23.0943 84.9623 23.3052C84.7902 23.6184 84.6629 24.18 84.6628 24.9657C84.6628 25.7207 84.7801 26.5332 84.9544 27.2263C85.0409 27.5704 85.1367 27.8658 85.2287 28.095C85.2745 28.209 85.3159 28.2984 85.3505 28.3643C85.3685 28.3986 85.3823 28.4223 85.3914 28.437C85.4135 28.4509 85.5146 28.5158 85.7831 28.5941C86.1858 28.7115 86.5351 28.7538 87.0962 28.8706C87.4009 28.934 87.9903 28.8625 89.1117 28.4121C90.4354 27.8804 91.0819 26.572 91.1933 24.4735C91.196 24.4233 91.1979 24.3728 91.1999 24.3223C90.7045 24.7232 89.9894 24.7836 89.4228 24.4216C88.9549 24.1226 88.1803 23.757 87.3522 23.4683C86.4941 23.1691 85.7839 23.0249 85.4113 23.0301Z" fill="url(#paint2_radial_5169_95)"/>
<path d="M102.425 14.9162C102.251 14.0937 102.776 13.2854 103.599 13.1108C104.421 12.9363 105.229 13.4615 105.404 14.284C105.412 14.3223 105.415 14.3332 105.417 14.3419C105.417 14.3445 105.418 14.3456 105.418 14.3457C105.418 14.3456 105.418 14.3455 105.418 14.3453L105.419 14.3491C105.42 14.3519 105.422 14.357 105.425 14.3644C105.432 14.3793 105.444 14.4049 105.464 14.4436C105.554 14.614 105.756 14.9418 106.222 15.5819C107.154 16.8603 108.981 19.1655 110.164 20.5463C110.746 21.2255 111.152 21.6565 111.513 22.0501C111.878 22.4473 112.206 22.8155 112.566 23.3157C113.056 23.9985 112.9 24.9498 112.218 25.4404C111.535 25.931 110.584 25.7751 110.093 25.0923C109.842 24.7429 109.612 24.4816 109.271 24.1097C108.926 23.7341 108.477 23.2563 107.852 22.5273C106.622 21.0916 104.744 18.7239 103.761 17.3751C103.271 16.7016 102.964 16.2312 102.769 15.8615C102.541 15.4279 102.473 15.142 102.425 14.9162Z" fill="url(#paint3_radial_5169_95)"/>
<path d="M94.1704 6.88284C94.7062 6.28134 95.5182 5.91184 96.382 5.97923C96.7297 5.79733 97.1468 5.68462 97.6014 5.71519C98.1864 5.75454 98.7229 6.02575 99.1149 6.47766L99.1524 6.52194L99.2149 6.60084C99.3123 6.72931 99.3952 6.8647 99.4657 7.00205C100.335 7.17412 100.977 7.71732 101.284 8.44121L101.315 8.51794L101.335 8.57004C101.432 8.83871 101.528 9.22722 101.487 9.6601C101.438 10.1752 101.163 10.8805 100.39 11.2376C99.5288 11.6354 97.3949 12.1608 95.0391 11.9578C94.5537 11.916 93.951 11.7962 93.474 11.4127C93.2123 11.2023 92.9268 10.858 92.8306 10.3668C92.7315 9.86036 92.8742 9.40179 93.0996 9.07127C93.2025 8.92047 93.3211 8.7954 93.4452 8.69161C93.4782 8.065 93.7042 7.40626 94.1704 6.88284Z" fill="url(#paint4_radial_5169_95)"/>
<path d="M119.695 3.61122C119.52 2.78872 120.046 1.98045 120.868 1.80589C121.691 1.63134 122.499 2.15661 122.674 2.97911C122.679 3.00328 122.678 3.01612 123.451 5.96248C124.216 8.87774 125.725 14.6175 126.578 17.7C126.987 19.1806 127.265 20.1134 127.379 20.5379C127.411 20.6557 127.441 20.7748 127.464 20.8838C127.479 20.9591 127.522 21.1646 127.512 21.3983C127.507 21.5148 127.485 21.7823 127.332 22.0747C127.143 22.4328 126.804 22.7347 126.354 22.8532C125.986 22.9502 125.683 22.8852 125.562 22.8542C125.424 22.8188 125.318 22.7718 125.274 22.7518C124.649 22.4678 124.309 21.8141 124.394 21.1671C124.264 20.698 124.04 19.9488 123.643 18.5115C122.784 15.4053 121.269 9.64361 120.506 6.73509C119.751 3.85768 119.72 3.72876 119.695 3.61122ZM126.534 19.98C126.527 19.9771 126.512 19.9702 126.489 19.9609C126.504 19.9671 126.519 19.9733 126.534 19.98Z" fill="url(#paint5_radial_5169_95)"/>
<path d="M114.378 13.2287C115.524 12.9855 118.753 12.4368 123.576 11.7449L124.579 11.6021L124.597 11.6001C127.076 11.3092 128.935 11.2261 130.209 11.1944C131.483 11.1627 132.015 11.1849 133.451 11.0283C134.287 10.9371 135.038 11.5408 135.129 12.3767C135.22 13.2125 134.617 13.964 133.781 14.0552C132.185 14.2292 131.49 14.2084 130.285 14.2384C129.083 14.2683 127.327 14.3462 124.971 14.6219C119.612 15.3784 116.118 15.9721 115.01 16.2073C114.188 16.3818 113.379 15.8566 113.205 15.0341C113.03 14.2116 113.555 13.4033 114.378 13.2287Z" fill="url(#paint6_radial_5169_95)"/>
<path d="M137.684 6.10494C138.404 5.67072 139.339 5.90239 139.774 6.62239C140.363 7.59931 143.151 11.6864 147.777 17.9295C149.358 20.063 150.778 21.4605 151.869 22.3219C152.008 22.4315 152.141 22.5319 152.267 22.6236C152.256 22.3149 152.239 21.9704 152.216 21.5905C152.104 19.7813 151.864 17.336 151.55 14.5208C151.289 14.082 151.055 13.6689 150.849 13.2799C150.148 11.9555 149.631 10.6587 149.694 9.4307L149.698 9.38207C149.719 9.10989 149.829 8.41625 150.522 8.0115C151.236 7.59391 151.914 7.87558 152.078 7.94876C152.489 8.13183 152.843 8.47104 152.974 8.59492C153.042 8.65896 153.219 8.81995 153.391 9.04897C153.57 9.28691 153.717 9.55801 153.841 9.88082C154.075 10.4879 154.25 11.3372 154.397 12.6093C154.432 12.9149 154.467 13.2177 154.501 13.5171C155.053 14.4167 155.732 15.4582 156.541 16.6774C157.467 18.0741 158.793 19.8381 160.137 21.5957C160.374 21.905 160.611 22.2143 160.846 22.5211C162.64 21.5194 164.297 20.715 165.543 20.1956C166.151 19.9188 166.658 19.6645 167.178 19.42C167.419 19.3067 167.666 19.1949 167.886 19.1093C168.037 19.0507 168.409 18.9056 168.804 18.9011C169.645 18.8915 170.334 19.5654 170.344 20.4062C170.353 21.1804 169.782 21.8256 169.035 21.9304C169.023 21.9347 169.008 21.9403 168.989 21.9477C168.87 21.9936 168.702 22.0682 168.473 22.176C168.057 22.3713 167.402 22.6956 166.785 22.9758L166.762 22.9861L166.739 22.9957C165.678 23.4365 164.263 24.1181 162.713 24.9682C163.087 25.4641 163.43 25.9268 163.728 26.3411C164.617 27.5789 165.183 28.4464 165.471 29.0945C165.62 29.4278 165.756 29.8327 165.754 30.2819C165.752 30.7974 165.571 31.1958 165.373 31.4844C165.026 31.9888 164.531 32.3046 164.123 32.5029C163.694 32.7115 163.221 32.857 162.765 32.9551C161.642 33.197 160.317 33.0127 159.062 32.6749C157.764 32.3259 156.357 31.7623 154.987 31.0738C154.571 30.8651 154.167 30.5645 153.88 30.1273C153.579 29.6699 153.477 29.17 153.508 28.7044C153.563 27.884 154.029 27.2216 154.295 26.8757L154.417 26.7184L154.575 26.5974C155.734 25.7088 156.972 24.8628 158.209 24.0851C158.047 23.8736 157.883 23.6601 157.718 23.445C156.843 22.3006 155.948 21.117 155.156 20.0172C155.195 20.5094 155.229 20.9726 155.255 21.4032C155.323 22.5046 155.35 23.4518 155.309 24.1419C155.29 24.4672 155.25 24.8493 155.143 25.1865C155.092 25.3455 154.985 25.6353 154.747 25.9032C154.463 26.224 153.962 26.5302 153.317 26.4524C152.822 26.3927 152.289 26.178 151.788 25.9139C151.256 25.6334 150.648 25.2368 149.983 24.7119C148.651 23.6608 147.048 22.0602 145.331 19.7424C140.709 13.506 137.84 9.3116 137.166 8.19487C136.732 7.47487 136.964 6.53919 137.684 6.10494ZM160.066 26.5151C159.007 27.1737 157.942 27.8863 156.932 28.6337C157.963 29.1175 158.964 29.4955 159.852 29.7345C160.948 30.0293 161.71 30.0677 162.125 29.9784C162.245 29.9524 162.355 29.9233 162.453 29.8931C162.229 29.5171 161.858 28.957 161.255 28.1172C160.914 27.6433 160.511 27.1026 160.066 26.5151Z" fill="url(#paint7_radial_5169_95)"/>
<path d="M96.2911 41.5444C96.7944 41.4355 97.2049 41.6001 97.4382 41.7463C97.6279 41.8653 97.7543 42.0016 97.8255 42.0889L97.8527 42.1232L98.0124 42.3322C99.6308 44.4784 100.262 46.1863 100.638 47.5475C100.852 48.3229 100.911 48.6702 101.058 49.1319C101.174 49.4959 101.278 49.6784 101.402 49.8147C102.727 51.2841 104.607 53.2923 106.046 55.0753L106.184 55.247L106.223 55.2961L106.258 55.3483C106.71 56.0225 107.106 56.6122 107.416 57.1056C107.686 57.5343 107.937 57.9631 108.108 58.3616C108.189 58.4852 108.335 58.66 108.605 58.9676C109.16 59.5993 109.098 60.5614 108.466 61.1163C107.834 61.6711 106.872 61.6088 106.317 60.9771C106.072 60.6973 105.676 60.2578 105.414 59.7868L105.363 59.6961L105.326 59.5995C105.269 59.4551 105.129 59.1883 104.838 58.7253C104.565 58.2908 104.21 57.7618 103.765 57.0975C102.614 55.6594 101.144 54.0566 99.8616 52.6487C99.8825 52.9218 99.8996 53.1968 99.9114 53.4725C100.009 55.7607 99.7891 58.3787 98.6626 60.3322C98.5013 60.6119 98.1994 61.0927 97.6928 61.4481C97.1075 61.8588 96.3639 62.0237 95.5547 61.8119C95.0764 61.6867 94.5775 61.5735 94.0675 61.46C93.5675 61.3488 93.0459 61.2349 92.5656 61.1156C92.0876 60.9968 91.6012 60.8608 91.1672 60.695C90.758 60.5386 90.2583 60.306 89.8582 59.9316C89.3258 59.4334 88.7514 58.569 88.2238 57.6899C87.6643 56.7576 87.0542 55.6292 86.4585 54.465C85.2676 52.1378 84.0961 49.5929 83.4485 48.0353C83.1257 47.2589 83.4934 46.3679 84.2698 46.0451C85.0462 45.7223 85.9373 46.09 86.2601 46.8664C86.8731 48.3408 88.01 50.8127 89.1692 53.078C89.7486 54.2102 90.3239 55.2721 90.8346 56.123C91.37 57.0152 91.7475 57.5251 91.9315 57.7014C91.9236 57.6932 92.0002 57.7537 92.2541 57.8507C92.5166 57.951 92.8636 58.0521 93.2999 58.1606C93.734 58.2684 94.2078 58.372 94.7288 58.4879C95.1481 58.5812 95.5922 58.6814 96.0354 58.7922C96.7096 57.6079 96.96 55.7216 96.8692 53.6028C96.7801 51.5257 96.3766 49.4916 95.9915 48.2336C95.5517 46.7965 95.2812 45.4651 95.1478 44.509C95.0826 44.0421 95.0433 43.6161 95.0435 43.2943C95.0436 43.1934 95.0419 42.8858 95.1442 42.5818C95.1749 42.4905 95.2411 42.3174 95.3772 42.1344C95.5151 41.949 95.8059 41.6494 96.2911 41.5444Z" fill="url(#paint8_radial_5169_95)"/>
<path d="M111.787 37.6897C111.612 36.8672 112.137 36.0589 112.96 35.8844C113.782 35.7098 114.591 36.2351 114.765 37.0576C114.794 37.1914 114.822 37.3244 115.467 40.2531C116.111 43.1779 117.368 48.8815 117.955 51.537C118.09 52.1463 118.187 52.5829 118.255 52.8876C118.274 52.9436 118.29 53.0013 118.303 53.0605C118.334 53.2045 118.365 53.3523 118.385 53.4491C118.393 53.4894 118.405 53.5432 118.411 53.5796C118.413 53.586 118.414 53.5969 118.417 53.61C118.418 53.6159 118.423 53.6511 118.428 53.6955C118.429 53.703 118.439 53.7849 118.437 53.8881C118.437 53.897 118.44 54.1148 118.352 54.3667C118.278 54.5413 117.954 54.9758 117.668 55.1859C117.219 55.3545 116.403 55.2964 116.093 55.1439C115.944 55.0353 115.741 54.8323 115.678 54.7508C115.643 54.6986 115.588 54.6081 115.567 54.5707C115.53 54.4988 115.506 54.4397 115.497 54.4174C115.477 54.3663 115.464 54.3251 115.461 54.3133C115.451 54.2821 115.444 54.2568 115.442 54.2497C115.439 54.2386 115.437 54.2291 115.435 54.2227C115.432 54.2099 115.429 54.1974 115.427 54.1874C115.395 54.0541 115.274 53.514 114.982 52.1948C114.395 49.5375 113.137 43.8327 112.493 40.908C111.85 37.9872 111.818 37.8381 111.787 37.6897Z" fill="url(#paint9_radial_5169_95)"/>
<path d="M114.632 35.726C115.075 35.0114 116.014 34.7912 116.729 35.2342C120.172 37.3686 124.598 40.4968 127.769 43.0275L128.072 43.2705L128.088 43.2838L128.104 43.2976C129.033 44.0904 129.561 44.7881 130.004 45.4994C130.045 45.552 130.088 45.5999 130.155 45.66C130.248 45.7435 130.398 45.8615 130.667 46.0428C131.364 46.5131 131.548 47.4593 131.077 48.1563C130.607 48.8533 129.661 49.0371 128.964 48.5668C128.285 48.109 127.877 47.7509 127.52 47.2623L127.484 47.2131L127.452 47.1613C127.132 46.6418 126.8 46.19 126.142 45.6258C123.053 43.1368 118.566 39.9556 115.124 37.8222C114.41 37.3791 114.189 36.4407 114.632 35.726Z" fill="url(#paint10_radial_5169_95)"/>
<path d="M124.614 43.3571C125.065 42.6479 126.006 42.4391 126.716 42.8907C127.425 43.3424 127.634 44.2834 127.182 44.9926C126.711 45.7316 126.139 46.2141 125.443 46.5337L125.364 46.57L125.281 46.597C124.797 46.7554 124.191 46.9307 123.514 47.1309C122.832 47.3324 122.042 47.5691 121.135 47.8642C120.079 48.2622 119.212 48.5866 118.558 48.8228C117.946 49.0439 117.403 49.2319 117.081 49.3001C116.259 49.4746 115.451 48.9494 115.276 48.1268C115.102 47.3043 115.627 46.4961 116.449 46.3215C116.443 46.3229 116.464 46.3184 116.525 46.3003C116.582 46.2834 116.658 46.2597 116.755 46.2277C116.95 46.1635 117.205 46.0741 117.524 45.9588C118.163 45.7283 119.022 45.4066 120.096 45.002L120.128 44.9897L120.161 44.979C121.121 44.6664 121.952 44.4174 122.651 44.2108C123.311 44.0159 123.825 43.8667 124.239 43.7339C124.365 43.6666 124.476 43.5729 124.614 43.3571Z" fill="url(#paint11_radial_5169_95)"/>
<path d="M130.019 32.2642C129.845 31.4417 130.37 30.6334 131.192 30.4588C132.015 30.2843 132.823 30.8096 132.998 31.6321C133.465 33.8352 134.934 37.5272 136.912 41.6708C137.184 42.2415 137.408 42.7584 137.602 43.2339C137.906 42.4196 138.204 41.6823 138.5 41.021C139.16 39.5462 139.855 38.3438 140.652 37.5058C141.462 36.6532 142.477 36.2952 143.313 36.1524C144.096 36.0185 144.817 36.0557 145.289 36.1113L145.38 36.1227L145.914 36.1928L146.286 36.5834C147.61 37.9766 148.273 39.7536 148.376 40.9301L148.382 40.9984L148.382 41.0669C148.381 41.8443 148.216 42.7414 147.412 43.9583C146.949 44.6597 146.004 44.8526 145.303 44.3891C144.601 43.9255 144.408 42.981 144.872 42.2795C145.126 41.8953 145.232 41.6372 145.281 41.4742C145.319 41.3488 145.332 41.2466 145.336 41.1338C145.279 40.6936 145.003 39.8655 144.436 39.1058C144.243 39.1054 144.034 39.1181 143.826 39.1537C143.392 39.2279 143.071 39.3805 142.859 39.6033C142.417 40.0688 141.89 40.9011 141.279 42.2654C140.677 43.6095 140.037 45.3697 139.326 47.6065C139.288 47.7241 139.189 48.0476 138.992 48.3213C138.903 48.4441 138.565 48.8882 137.915 48.9775C137.186 49.0777 136.713 48.6594 136.559 48.4974C136.394 48.3247 136.299 48.1479 136.264 48.0809C136.218 47.994 136.181 47.9094 136.156 47.8525C136.083 47.6833 136.079 47.6645 136.012 47.5137C135.688 46.7833 135.43 46.0635 135.166 45.364C134.897 44.6511 134.599 43.8929 134.164 42.9826C132.18 38.8259 130.568 34.851 130.019 32.2642Z" fill="url(#paint12_radial_5169_95)"/>
<path d="M154.979 36.7092C155.67 36.2301 156.619 36.4018 157.098 37.0927C158.063 38.4851 160.01 41.2051 161.424 43.4067C161.842 42.9412 162.034 42.1903 162.073 41.0641C162.101 40.2359 162.041 39.5611 162.029 38.7624C162.023 38.4175 162.027 38.0077 162.092 37.6336C162.143 37.3394 162.3 36.6009 162.991 36.153L163.757 35.6557L164.557 36.0984C167.302 37.6186 168.611 40.4314 169.565 42.3997C169.936 42.9928 170.324 43.3658 171.234 43.7285C172.015 44.0398 172.396 44.9252 172.085 45.7063C171.774 46.4874 170.888 46.8682 170.107 46.557C168.546 45.935 167.652 45.1092 166.931 43.9312L166.893 43.8683L166.86 43.8019C166.299 42.6456 165.769 41.568 165.124 40.6638C165.124 40.8329 165.121 41.0019 165.116 41.1672C165.054 42.9796 164.592 45.7738 161.656 46.7659C161.115 46.9488 160.627 46.827 160.304 46.6669C160.01 46.521 159.799 46.3213 159.671 46.1867C159.417 45.918 159.197 45.5795 159.043 45.336C157.665 43.1591 155.654 40.3542 154.596 38.8277C154.117 38.1368 154.288 37.1883 154.979 36.7092ZM165.092 38.1536C165.105 38.1103 165.101 38.1022 165.092 38.1512C165.092 38.152 165.092 38.1528 165.092 38.1536Z" fill="url(#paint13_radial_5169_95)"/>
<defs>
<radialGradient id="paint0_radial_5169_95" cx="0" cy="0" r="1" gradientUnits="userSpaceOnUse" gradientTransform="translate(19.9183 34.7178) rotate(93.0486) scale(26.2967 18.5462)">
<stop stop-color="#FF1111"/>
<stop offset="1" stop-color="#BF1111"/>
</radialGradient>
<radialGradient id="paint1_radial_5169_95" cx="0" cy="0" r="1" gradientUnits="userSpaceOnUse" gradientTransform="translate(57.0817 34.7175) rotate(86.0258) scale(25.7431 17.9227)">
<stop stop-color="#FF1111"/>
<stop offset="1" stop-color="#BF1111"/>
</radialGradient>
<radialGradient id="paint2_radial_5169_95" cx="0" cy="0" r="1" gradientUnits="userSpaceOnUse" gradientTransform="translate(92.4688 24.6643) rotate(78.0184) scale(7.06397 10.9339)">
<stop stop-color="#FF1111"/>
<stop offset="1" stop-color="#BF1111"/>
</radialGradient>
<radialGradient id="paint3_radial_5169_95" cx="0" cy="0" r="1" gradientUnits="userSpaceOnUse" gradientTransform="translate(107.622 19.4022) rotate(78.0184) scale(6.98959 4.15231)">
<stop stop-color="#FF1111"/>
<stop offset="1" stop-color="#BF1111"/>
</radialGradient>
<radialGradient id="paint4_radial_5169_95" cx="0" cy="0" r="1" gradientUnits="userSpaceOnUse" gradientTransform="translate(96.9815 8.92655) rotate(78.0184) scale(3.11418 4.35967)">
<stop stop-color="#FF1111"/>
<stop offset="1" stop-color="#BF1111"/>
</radialGradient>
<radialGradient id="paint5_radial_5169_95" cx="0" cy="0" r="1" gradientUnits="userSpaceOnUse" gradientTransform="translate(123.598 12.3334) rotate(78.0184) scale(10.8647 2.00687)">
<stop stop-color="#FF1111"/>
<stop offset="1" stop-color="#BF1111"/>
</radialGradient>
<radialGradient id="paint6_radial_5169_95" cx="0" cy="0" r="1" gradientUnits="userSpaceOnUse" gradientTransform="translate(124.155 13.6299) rotate(78.0184) scale(2.42211 11.0032)">
<stop stop-color="#FF1111"/>
<stop offset="1" stop-color="#BF1111"/>
</radialGradient>
<radialGradient id="paint7_radial_5169_95" cx="0" cy="0" r="1" gradientUnits="userSpaceOnUse" gradientTransform="translate(154.63 18.5521) rotate(78.0184) scale(15.7782 15.0171)">
<stop stop-color="#FF1111"/>
<stop offset="1" stop-color="#BF1111"/>
</radialGradient>
<radialGradient id="paint8_radial_5169_95" cx="0" cy="0" r="1" gradientUnits="userSpaceOnUse" gradientTransform="translate(95.9625 52.7917) rotate(78.0184) scale(10.9341 11.2802)">
<stop stop-color="#FF1111"/>
<stop offset="1" stop-color="#BF1111"/>
</radialGradient>
<radialGradient id="paint9_radial_5169_95" cx="0" cy="0" r="1" gradientUnits="userSpaceOnUse" gradientTransform="translate(115.09 45.5895) rotate(78.0184) scale(9.93596 1.59164)">
<stop stop-color="#FF1111"/>
<stop offset="1" stop-color="#BF1111"/>
</radialGradient>
<radialGradient id="paint10_radial_5169_95" cx="0" cy="0" r="1" gradientUnits="userSpaceOnUse" gradientTransform="translate(122.871 41.9165) rotate(78.0184) scale(8.23501 7.19698)">
<stop stop-color="#FF1111"/>
<stop offset="1" stop-color="#BF1111"/>
</radialGradient>
<radialGradient id="paint11_radial_5169_95" cx="0" cy="0" r="1" gradientUnits="userSpaceOnUse" gradientTransform="translate(121.332 45.9928) rotate(78.0184) scale(2.35285 6.36656)">
<stop stop-color="#FF1111"/>
<stop offset="1" stop-color="#BF1111"/>
</radialGradient>
<radialGradient id="paint12_radial_5169_95" cx="0" cy="0" r="1" gradientUnits="userSpaceOnUse" gradientTransform="translate(139.649 38.6391) rotate(78.0184) scale(9.75757 8.09654)">
<stop stop-color="#FF1111"/>
<stop offset="1" stop-color="#BF1111"/>
</radialGradient>
<radialGradient id="paint13_radial_5169_95" cx="0" cy="0" r="1" gradientUnits="userSpaceOnUse" gradientTransform="translate(163.259 41.5514) rotate(78.0184) scale(6.57442 8.02766)">
<stop stop-color="#FF1111"/>
<stop offset="1" stop-color="#BF1111"/>
</radialGradient>
</defs>
</svg>
